<svg xmlns="http://www.w3.org/2000/svg" xmlns:xlink="http://www.w3.org/1999/xlink" width="375" viewBox="0 0 375 375" height="375" version="1.0"><defs><clipPath id="a"><path d="M 144.550781 86.9375 L 185.566406 86.9375 L 185.566406 169.070312 L 144.550781 169.070312 Z M 144.550781 86.9375"/></clipPath><clipPath id="b"><path d="M 180.097656 158.117188 C 180.097656 161.132812 177.640625 163.59375 174.628906 163.59375 C 171.617188 163.59375 169.160156 161.132812 169.160156 158.117188 C 169.160156 156.523438 169.855469 155.003906 171.0625 153.957031 L 167.496094 149.820312 C 165.882812 151.210938 164.78125 153.039062 164.195312 155.027344 C 160.753906 154.054688 158.222656 150.910156 158.222656 147.167969 C 158.222656 146.035156 158.46875 144.910156 158.949219 143.839844 C 158.949219 143.832031 158.949219 143.820312 158.949219 143.808594 C 159.65625 142.246094 160.839844 140.910156 162.324219 140.054688 L 159.589844 135.308594 C 158 136.226562 156.644531 137.5 155.554688 138.953125 C 152.101562 136.398438 150.019531 132.398438 150.019531 128.003906 C 150.019531 121.449219 154.6875 115.800781 161.105469 114.570312 C 163.511719 114.101562 166.050781 114.292969 168.359375 115.128906 L 170.21875 109.984375 C 167.539062 109.011719 164.632812 108.691406 161.78125 108.96875 C 161.257812 108.113281 160.957031 107.140625 160.957031 106.101562 C 160.957031 103.867188 162.304688 101.953125 164.226562 101.097656 C 164.738281 102.785156 165.613281 104.347656 166.894531 105.632812 L 170.761719 101.761719 C 169.726562 100.722656 169.160156 99.355469 169.160156 97.890625 C 169.160156 94.875 171.617188 92.414062 174.628906 92.414062 C 177.640625 92.414062 180.097656 94.875 180.097656 97.890625 Z M 174.628906 86.9375 C 169.4375 86.9375 165.089844 90.574219 163.96875 95.429688 C 159.121094 96.550781 155.488281 100.90625 155.488281 106.101562 C 155.488281 107.566406 155.777344 109 156.324219 110.316406 C 149.328125 113.234375 144.550781 120.164062 144.550781 128.003906 C 144.550781 134.527344 147.789062 140.453125 153.140625 143.980469 C 152.882812 145.019531 152.753906 146.085938 152.753906 147.167969 C 152.753906 153.882812 157.605469 159.476562 163.980469 160.632812 C 165.125 165.464844 169.460938 169.070312 174.628906 169.070312 C 180.664062 169.070312 185.566406 164.160156 185.566406 158.117188 L 185.566406 97.890625 C 185.566406 91.847656 180.664062 86.9375 174.628906 86.9375 Z M 174.628906 86.9375"/></clipPath><clipPath id="c"><path d="M 180.097656 158.117188 C 180.097656 161.132812 177.640625 163.59375 174.628906 163.59375 C 171.617188 163.59375 169.160156 161.132812 169.160156 158.117188 C 169.160156 156.523438 169.855469 155.003906 171.0625 153.957031 L 167.496094 149.820312 C 165.882812 151.210938 164.78125 153.039062 164.195312 155.027344 C 160.753906 154.054688 158.222656 150.910156 158.222656 147.167969 C 158.222656 146.035156 158.46875 144.910156 158.949219 143.839844 C 158.949219 143.832031 158.949219 143.820312 158.949219 143.808594 C 159.65625 142.246094 160.839844 140.910156 162.324219 140.054688 L 159.589844 135.308594 C 158 136.226562 156.644531 137.5 155.554688 138.953125 C 152.101562 136.398438 150.019531 132.398438 150.019531 128.003906 C 150.019531 121.449219 154.6875 115.800781 161.105469 114.570312 C 163.511719 114.101562 166.050781 114.292969 168.359375 115.128906 L 170.21875 109.984375 C 167.539062 109.011719 164.632812 108.691406 161.78125 108.96875 C 161.257812 108.113281 160.957031 107.140625 160.957031 106.101562 C 160.957031 103.867188 162.304688 101.953125 164.226562 101.097656 C 164.738281 102.785156 165.613281 104.347656 166.894531 105.632812 L 170.761719 101.761719 C 169.726562 100.722656 169.160156 99.355469 169.160156 97.890625 C 169.160156 94.875 171.617188 92.414062 174.628906 92.414062 C 177.640625 92.414062 180.097656 94.875 180.097656 97.890625 Z M 174.628906 86.9375 C 169.4375 86.9375 165.089844 90.574219 163.96875 95.429688 C 159.121094 96.550781 155.488281 100.90625 155.488281 106.101562 C 155.488281 107.566406 155.777344 109 156.324219 110.316406 C 149.328125 113.234375 144.550781 120.164062 144.550781 128.003906 C 144.550781 134.527344 147.789062 140.453125 153.140625 143.980469 C 152.882812 145.019531 152.753906 146.085938 152.753906 147.167969 C 152.753906 153.882812 157.605469 159.476562 163.980469 160.632812 C 165.125 165.464844 169.460938 169.070312 174.628906 169.070312 C 180.664062 169.070312 185.566406 164.160156 185.566406 158.117188 L 185.566406 97.890625 C 185.566406 91.847656 180.664062 86.9375 174.628906 86.9375"/></clipPath><clipPath id="d"><path d="M 103.558594 126.558594 L 164.34375 189.589844 L 226.558594 129.445312 L 165.773438 66.417969 Z M 103.558594 126.558594"/></clipPath><clipPath id="f"><path d="M 191.035156 86.9375 L 232.046875 86.9375 L 232.046875 169.070312 L 191.035156 169.070312 Z M 191.035156 86.9375"/></clipPath><clipPath id="g"><path d="M 221.046875 138.953125 C 219.957031 137.5 218.601562 136.226562 217.011719 135.308594 L 214.277344 140.054688 C 215.761719 140.910156 216.945312 142.246094 217.652344 143.808594 C 217.652344 143.820312 217.652344 143.832031 217.652344 143.839844 C 218.132812 144.910156 218.378906 146.035156 218.378906 147.167969 C 218.378906 150.910156 215.847656 154.054688 212.40625 155.027344 C 211.820312 153.039062 210.71875 151.210938 209.105469 149.820312 L 205.539062 153.957031 C 206.746094 155.003906 207.441406 156.523438 207.441406 158.117188 C 207.441406 161.132812 204.984375 163.59375 201.972656 163.59375 C 198.960938 163.59375 196.503906 161.132812 196.503906 158.117188 L 196.503906 97.890625 C 196.503906 94.875 198.960938 92.414062 201.972656 92.414062 C 204.984375 92.414062 207.441406 94.875 207.441406 97.890625 C 207.441406 99.355469 206.875 100.722656 205.839844 101.761719 L 209.703125 105.632812 C 210.988281 104.347656 211.863281 102.785156 212.375 101.097656 C 214.296875 101.953125 215.644531 103.867188 215.644531 106.101562 C 215.644531 107.128906 215.34375 108.113281 214.820312 108.96875 C 211.96875 108.691406 209.0625 109.011719 206.382812 109.984375 L 208.242188 115.128906 C 210.546875 114.292969 213.089844 114.101562 215.492188 114.570312 C 221.914062 115.800781 226.582031 121.449219 226.582031 128.003906 C 226.582031 132.398438 224.496094 136.398438 221.046875 138.953125 Z M 220.277344 110.316406 C 220.824219 109 221.113281 107.566406 221.113281 106.101562 C 221.113281 100.90625 217.480469 96.550781 212.632812 95.429688 C 211.507812 90.574219 207.164062 86.9375 201.972656 86.9375 C 195.9375 86.9375 191.035156 91.847656 191.035156 97.890625 L 191.035156 158.117188 C 191.035156 164.160156 195.9375 169.070312 201.972656 169.070312 C 207.140625 169.070312 211.476562 165.464844 212.621094 160.632812 C 218.996094 159.476562 223.847656 153.882812 223.847656 147.167969 C 223.847656 146.085938 223.71875 145.019531 223.460938 143.980469 C 228.8125 140.453125 232.046875 134.527344 232.046875 128.003906 C 232.046875 120.164062 227.273438 113.234375 220.277344 110.316406 Z M 220.277344 110.316406"/></clipPath><clipPath id="h"><path d="M 221.046875 138.953125 C 219.957031 137.5 218.601562 136.226562 217.011719 135.308594 L 214.277344 140.054688 C 215.761719 140.910156 216.945312 142.246094 217.652344 143.808594 C 217.652344 143.820312 217.652344 143.832031 217.652344 143.839844 C 218.132812 144.910156 218.378906 146.035156 218.378906 147.167969 C 218.378906 150.910156 215.847656 154.054688 212.40625 155.027344 C 211.820312 153.039062 210.71875 151.210938 209.105469 149.820312 L 205.539062 153.957031 C 206.746094 155.003906 207.441406 156.523438 207.441406 158.117188 C 207.441406 161.132812 204.984375 163.59375 201.972656 163.59375 C 198.960938 163.59375 196.503906 161.132812 196.503906 158.117188 L 196.503906 97.890625 C 196.503906 94.875 198.960938 92.414062 201.972656 92.414062 C 204.984375 92.414062 207.441406 94.875 207.441406 97.890625 C 207.441406 99.355469 206.875 100.722656 205.839844 101.761719 L 209.703125 105.632812 C 210.988281 104.347656 211.863281 102.785156 212.375 101.097656 C 214.296875 101.953125 215.644531 103.867188 215.644531 106.101562 C 215.644531 107.128906 215.34375 108.113281 214.820312 108.96875 C 211.96875 108.691406 209.0625 109.011719 206.382812 109.984375 L 208.242188 115.128906 C 210.546875 114.292969 213.089844 114.101562 215.492188 114.570312 C 221.914062 115.800781 226.582031 121.449219 226.582031 128.003906 C 226.582031 132.398438 224.496094 136.398438 221.046875 138.953125 Z M 220.277344 110.316406 C 220.824219 109 221.113281 107.566406 221.113281 106.101562 C 221.113281 100.90625 217.480469 96.550781 212.632812 95.429688 C 211.507812 90.574219 207.164062 86.9375 201.972656 86.9375 C 195.9375 86.9375 191.035156 91.847656 191.035156 97.890625 L 191.035156 158.117188 C 191.035156 164.160156 195.9375 169.070312 201.972656 169.070312 C 207.140625 169.070312 211.476562 165.464844 212.621094 160.632812 C 218.996094 159.476562 223.847656 153.882812 223.847656 147.167969 C 223.847656 146.085938 223.71875 145.019531 223.460938 143.980469 C 228.8125 140.453125 232.046875 134.527344 232.046875 128.003906 C 232.046875 120.164062 227.273438 113.234375 220.277344 110.316406"/></clipPath><clipPath id="i"><path d="M 150.042969 126.558594 L 210.828125 189.589844 L 273.042969 129.445312 L 212.257812 66.417969 Z M 150.042969 126.558594"/></clipPath><clipPath id="k"><path d="M 122.679688 62.300781 L 253.921875 62.300781 L 253.921875 226.558594 L 122.679688 226.558594 Z M 122.679688 62.300781"/></clipPath><clipPath id="l"><path d="M 216.945312 168.050781 C 209.628906 173.304688 205.175781 181.804688 204.78125 190.96875 L 171.820312 190.96875 C 171.425781 181.742188 167.023438 173.292969 159.804688 168.179688 C 146.828125 158.941406 139.082031 143.925781 139.082031 128.003906 C 139.082031 113.996094 145.074219 100.59375 155.519531 91.25 C 166.105469 81.773438 179.789062 77.441406 194.035156 79.035156 C 216.828125 81.632812 235.027344 100.136719 237.28125 123.007812 C 239.035156 140.859375 231.429688 157.691406 216.945312 168.050781 Z M 212.910156 199.183594 C 212.910156 200.691406 211.679688 201.921875 210.175781 201.921875 L 166.425781 201.921875 C 164.921875 201.921875 163.691406 200.691406 163.691406 199.183594 C 163.691406 197.675781 164.921875 196.445312 166.425781 196.445312 L 210.175781 196.445312 C 211.679688 196.445312 212.910156 197.675781 212.910156 199.183594 Z M 210.175781 212.871094 L 166.425781 212.871094 C 164.921875 212.871094 163.691406 211.640625 163.691406 210.132812 C 163.691406 208.625 164.921875 207.394531 166.425781 207.394531 L 210.175781 207.394531 C 211.679688 207.394531 212.910156 208.625 212.910156 210.132812 C 212.910156 211.640625 211.679688 212.871094 210.175781 212.871094 Z M 196.503906 221.085938 L 180.097656 221.085938 C 177.695312 221.085938 175.503906 220.035156 174 218.347656 L 202.601562 218.347656 C 201.097656 220.035156 198.90625 221.085938 196.503906 221.085938 Z M 253.921875 130.742188 L 253.921875 125.265625 L 242.910156 125.265625 C 242.867188 124.335938 242.816406 123.414062 242.730469 122.476562 C 242.046875 115.546875 240.007812 108.988281 236.941406 103.042969 L 246.5 97.527344 L 243.765625 92.777344 L 234.195312 98.316406 C 229.988281 91.816406 224.445312 86.265625 217.960938 82.050781 L 223.484375 72.46875 L 218.742188 69.730469 L 213.238281 79.28125 C 207.535156 76.339844 201.277344 74.351562 194.644531 73.59375 C 193.4375 73.464844 192.242188 73.433594 191.035156 73.378906 L 191.035156 62.300781 L 185.566406 62.300781 L 185.566406 73.378906 C 177.746094 73.753906 170.238281 75.761719 163.382812 79.3125 L 157.859375 69.730469 L 153.117188 72.46875 L 158.652344 82.0625 C 156.300781 83.601562 154.015625 85.257812 151.867188 87.171875 C 148.195312 90.46875 145.011719 94.210938 142.382812 98.296875 L 132.835938 92.777344 L 130.101562 97.527344 L 139.640625 103.042969 C 136.136719 109.886719 134.074219 117.460938 133.691406 125.265625 L 122.679688 125.265625 L 122.679688 130.742188 L 133.699219 130.742188 C 134.085938 138.558594 136.144531 146.128906 139.648438 152.964844 L 130.101562 158.480469 L 132.835938 163.230469 L 142.40625 157.699219 C 146.121094 163.464844 150.917969 168.566406 156.644531 172.640625 C 157.304688 173.109375 157.925781 173.636719 158.523438 174.167969 L 153.117188 183.539062 L 157.859375 186.273438 L 162.324219 178.53125 C 164.71875 182.125 166.117188 186.425781 166.351562 190.980469 C 161.867188 191.023438 158.222656 194.679688 158.222656 199.183594 C 158.222656 201.300781 159.046875 203.203125 160.359375 204.65625 C 159.046875 206.113281 158.222656 208.027344 158.222656 210.132812 C 158.222656 214.667969 161.898438 218.347656 166.425781 218.347656 L 167.578125 218.347656 C 169.714844 223.277344 174.585938 226.558594 180.097656 226.558594 L 196.503906 226.558594 C 202.015625 226.558594 206.886719 223.277344 209.019531 218.347656 L 210.175781 218.347656 C 214.703125 218.347656 218.378906 214.667969 218.378906 210.132812 C 218.378906 208.027344 217.554688 206.113281 216.242188 204.65625 C 217.554688 203.203125 218.378906 201.300781 218.378906 199.183594 C 218.378906 194.679688 214.734375 191.023438 210.25 190.980469 C 210.484375 186.476562 211.882812 182.179688 214.296875 178.566406 L 218.742188 186.273438 L 223.484375 183.539062 L 218.078125 174.167969 C 218.730469 173.582031 219.414062 173.015625 220.128906 172.5 C 225.855469 168.40625 230.597656 163.378906 234.257812 157.734375 L 243.765625 163.230469 L 246.5 158.480469 L 237.015625 153.007812 C 240.507812 146.183594 242.539062 138.621094 242.910156 130.742188 Z M 253.921875 130.742188"/></clipPath><clipPath id="m"><path d="M 216.945312 168.050781 C 209.628906 173.304688 205.175781 181.804688 204.78125 190.96875 L 171.820312 190.96875 C 171.425781 181.742188 167.023438 173.292969 159.804688 168.179688 C 146.828125 158.941406 139.082031 143.925781 139.082031 128.003906 C 139.082031 113.996094 145.074219 100.59375 155.519531 91.25 C 166.105469 81.773438 179.789062 77.441406 194.035156 79.035156 C 216.828125 81.632812 235.027344 100.136719 237.28125 123.007812 C 239.035156 140.859375 231.429688 157.691406 216.945312 168.050781 Z M 212.910156 199.183594 C 212.910156 200.691406 211.679688 201.921875 210.175781 201.921875 L 166.425781 201.921875 C 164.921875 201.921875 163.691406 200.691406 163.691406 199.183594 C 163.691406 197.675781 164.921875 196.445312 166.425781 196.445312 L 210.175781 196.445312 C 211.679688 196.445312 212.910156 197.675781 212.910156 199.183594 Z M 210.175781 212.871094 L 166.425781 212.871094 C 164.921875 212.871094 163.691406 211.640625 163.691406 210.132812 C 163.691406 208.625 164.921875 207.394531 166.425781 207.394531 L 210.175781 207.394531 C 211.679688 207.394531 212.910156 208.625 212.910156 210.132812 C 212.910156 211.640625 211.679688 212.871094 210.175781 212.871094 Z M 196.503906 221.085938 L 180.097656 221.085938 C 177.695312 221.085938 175.503906 220.035156 174 218.347656 L 202.601562 218.347656 C 201.097656 220.035156 198.90625 221.085938 196.503906 221.085938 Z M 253.921875 130.742188 L 253.921875 125.265625 L 242.910156 125.265625 C 242.867188 124.335938 242.816406 123.414062 242.730469 122.476562 C 242.046875 115.546875 240.007812 108.988281 236.941406 103.042969 L 246.5 97.527344 L 243.765625 92.777344 L 234.195312 98.316406 C 229.988281 91.816406 224.445312 86.265625 217.960938 82.050781 L 223.484375 72.46875 L 218.742188 69.730469 L 213.238281 79.28125 C 207.535156 76.339844 201.277344 74.351562 194.644531 73.59375 C 193.4375 73.464844 192.242188 73.433594 191.035156 73.378906 L 191.035156 62.300781 L 185.566406 62.300781 L 185.566406 73.378906 C 177.746094 73.753906 170.238281 75.761719 163.382812 79.3125 L 157.859375 69.730469 L 153.117188 72.46875 L 158.652344 82.0625 C 156.300781 83.601562 154.015625 85.257812 151.867188 87.171875 C 148.195312 90.46875 145.011719 94.210938 142.382812 98.296875 L 132.835938 92.777344 L 130.101562 97.527344 L 139.640625 103.042969 C 136.136719 109.886719 134.074219 117.460938 133.691406 125.265625 L 122.679688 125.265625 L 122.679688 130.742188 L 133.699219 130.742188 C 134.085938 138.558594 136.144531 146.128906 139.648438 152.964844 L 130.101562 158.480469 L 132.835938 163.230469 L 142.40625 157.699219 C 146.121094 163.464844 150.917969 168.566406 156.644531 172.640625 C 157.304688 173.109375 157.925781 173.636719 158.523438 174.167969 L 153.117188 183.539062 L 157.859375 186.273438 L 162.324219 178.53125 C 164.71875 182.125 166.117188 186.425781 166.351562 190.980469 C 161.867188 191.023438 158.222656 194.679688 158.222656 199.183594 C 158.222656 201.300781 159.046875 203.203125 160.359375 204.65625 C 159.046875 206.113281 158.222656 208.027344 158.222656 210.132812 C 158.222656 214.667969 161.898438 218.347656 166.425781 218.347656 L 167.578125 218.347656 C 169.714844 223.277344 174.585938 226.558594 180.097656 226.558594 L 196.503906 226.558594 C 202.015625 226.558594 206.886719 223.277344 209.019531 218.347656 L 210.175781 218.347656 C 214.703125 218.347656 218.378906 214.667969 218.378906 210.132812 C 218.378906 208.027344 217.554688 206.113281 216.242188 204.65625 C 217.554688 203.203125 218.378906 201.300781 218.378906 199.183594 C 218.378906 194.679688 214.734375 191.023438 210.25 190.980469 C 210.484375 186.476562 211.882812 182.179688 214.296875 178.566406 L 218.742188 186.273438 L 223.484375 183.539062 L 218.078125 174.167969 C 218.730469 173.582031 219.414062 173.015625 220.128906 172.5 C 225.855469 168.40625 230.597656 163.378906 234.257812 157.734375 L 243.765625 163.230469 L 246.5 158.480469 L 237.015625 153.007812 C 240.507812 146.183594 242.539062 138.621094 242.910156 130.742188 L 253.921875 130.742188"/></clipPath><clipPath id="n"><path d="M 40.703125 141.554688 L 185.992188 292.21875 L 335.898438 147.304688 L 190.609375 -3.363281 Z M 40.703125 141.554688"/></clipPath><linearGradient x1=".261" gradientTransform="matrix(158.58758 -153.30917 153.11904 158.7845 97.14 202.914)" xmlns:xlink="http://www.w3.org/1999/xlink" y1="0" x2=".654" gradientUnits="userSpaceOnUse" y2="0" xlink:type="simple" xlink:actuate="onLoad" id="e" xlink:show="other"><stop stop-color="#F2B725" offset="0"/><stop stop-color="#F2B725" offset=".008"/><stop stop-color="#F2B725" offset=".016"/><stop stop-color="#F2B625" offset=".023"/><stop stop-color="#F1B526" offset=".031"/><stop stop-color="#F1B427" offset=".039"/><stop stop-color="#F1B327" offset=".047"/><stop stop-color="#F1B327" offset=".055"/><stop stop-color="#F1B228" offset=".063"/><stop stop-color="#F1B128" offset=".066"/><stop stop-color="#F1B128" offset=".07"/><stop stop-color="#F0B129" offset=".078"/><stop stop-color="#F0B029" offset=".086"/><stop stop-color="#F0AF2A" offset=".094"/><stop stop-color="#F0AF2A" offset=".102"/><stop stop-color="#F0AE2A" offset=".105"/><stop stop-color="#F0AE2A" offset=".109"/><stop stop-color="#F0AD2B" offset=".125"/><stop stop-color="#EFAC2C" offset=".133"/><stop stop-color="#EFAC2C" offset=".141"/><stop stop-color="#EFAB2C" offset=".145"/><stop stop-color="#EFAA2D" offset=".148"/><stop stop-color="#EFAA2D" offset=".156"/><stop stop-color="#EFAA2D" offset=".164"/><stop stop-color="#EFA92D" offset=".172"/><stop stop-color="#EEA82E" offset=".188"/><stop stop-color="#EEA72F" offset=".191"/><stop stop-color="#EEA62F" offset=".195"/><stop stop-color="#EEA62F" offset=".203"/><stop stop-color="#EEA530" offset=".211"/><stop stop-color="#EEA430" offset=".219"/><stop stop-color="#EEA430" offset=".227"/><stop stop-color="#EDA331" offset=".23"/><stop stop-color="#EDA331" offset=".234"/><stop stop-color="#EDA232" offset=".242"/><stop stop-color="#EDA132" offset=".25"/><stop stop-color="#EDA132" offset=".258"/><stop stop-color="#EDA033" offset=".266"/><stop stop-color="#EDA033" offset=".273"/><stop stop-color="#EC9F34" offset=".281"/><stop stop-color="#EC9F34" offset=".289"/><stop stop-color="#EC9E35" offset=".297"/><stop stop-color="#EC9D36" offset=".313"/><stop stop-color="#EC9C36" offset=".316"/><stop stop-color="#EC9B36" offset=".32"/><stop stop-color="#EC9B36" offset=".328"/><stop stop-color="#EB9B37" offset=".336"/><stop stop-color="#EB9A37" offset=".344"/><stop stop-color="#EB9938" offset=".352"/><stop stop-color="#EB9838" offset=".355"/><stop stop-color="#EB9838" offset=".359"/><stop stop-color="#EB9739" offset=".367"/><stop stop-color="#EB9639" offset=".375"/><stop stop-color="#EB9539" offset=".391"/><stop stop-color="#EA943A" offset=".395"/><stop stop-color="#EA943A" offset=".398"/><stop stop-color="#EA943A" offset=".406"/><stop stop-color="#EA933B" offset=".414"/><stop stop-color="#EA933B" offset=".422"/><stop stop-color="#EA923C" offset=".438"/><stop stop-color="#E9913C" offset=".441"/><stop stop-color="#E9903D" offset=".445"/><stop stop-color="#E9903D" offset=".453"/><stop stop-color="#E9903D" offset=".461"/><stop stop-color="#E98F3E" offset=".469"/><stop stop-color="#E98E3E" offset=".477"/><stop stop-color="#E98D3F" offset=".484"/><stop stop-color="#E98C3F" offset=".492"/><stop stop-color="#E88C3F" offset=".5"/><stop stop-color="#E88B40" offset=".516"/><stop stop-color="#E88941" offset=".52"/><stop stop-color="#E88941" offset=".523"/><stop stop-color="#E88942" offset=".531"/><stop stop-color="#E88842" offset=".539"/><stop stop-color="#E78742" offset=".547"/><stop stop-color="#E78743" offset=".555"/><stop stop-color="#E78643" offset=".563"/><stop stop-color="#E78644" offset=".566"/><stop stop-color="#E78544" offset=".57"/><stop stop-color="#E78544" offset=".578"/><stop stop-color="#E78545" offset=".586"/><stop stop-color="#E78445" offset=".594"/><stop stop-color="#E68345" offset=".602"/><stop stop-color="#E68246" offset=".605"/><stop stop-color="#E68246" offset=".609"/><stop stop-color="#E68246" offset=".617"/><stop stop-color="#E68146" offset=".625"/><stop stop-color="#E68047" offset=".641"/><stop stop-color="#E57F48" offset=".645"/><stop stop-color="#E57E48" offset=".648"/><stop stop-color="#E57E48" offset=".656"/><stop stop-color="#E57D48" offset=".664"/><stop stop-color="#E57D49" offset=".672"/><stop stop-color="#E57C49" offset=".68"/><stop stop-color="#E57B4A" offset=".688"/><stop stop-color="#E47A4A" offset=".691"/><stop stop-color="#E47A4B" offset=".695"/><stop stop-color="#E47A4B" offset=".703"/><stop stop-color="#E47A4B" offset=".711"/><stop stop-color="#E4794B" offset=".719"/><stop stop-color="#E4784C" offset=".727"/><stop stop-color="#E4774C" offset=".734"/><stop stop-color="#E3774D" offset=".742"/><stop stop-color="#E3764D" offset=".75"/><stop stop-color="#E3754E" offset=".766"/><stop stop-color="#E3744F" offset=".77"/><stop stop-color="#E3734F" offset=".773"/><stop stop-color="#E3734F" offset=".781"/><stop stop-color="#E37350" offset=".789"/><stop stop-color="#E27250" offset=".797"/><stop stop-color="#E27151" offset=".805"/><stop stop-color="#E27151" offset=".813"/><stop stop-color="#E27051" offset=".816"/><stop stop-color="#E26F51" offset=".82"/><stop stop-color="#E26E52" offset=".824"/><stop stop-color="#E26E52" offset=".828"/><stop stop-color="#E16E52" offset=".844"/><stop stop-color="#E16D53" offset=".852"/><stop stop-color="#E16C53" offset=".859"/><stop stop-color="#E16C54" offset=".867"/><stop stop-color="#E16B54" offset=".875"/><stop stop-color="#E16A54" offset=".883"/><stop stop-color="#E16A55" offset=".891"/><stop stop-color="#E06955" offset=".895"/><stop stop-color="#E06856" offset=".898"/><stop stop-color="#E06856" offset=".906"/><stop stop-color="#E06856" offset=".914"/><stop stop-color="#E06757" offset=".922"/><stop stop-color="#E06657" offset=".938"/><stop stop-color="#E06558" offset=".941"/><stop stop-color="#DF6458" offset=".945"/><stop stop-color="#DF6458" offset=".949"/><stop stop-color="#DF6359" offset=".953"/><stop stop-color="#DF6359" offset=".969"/><stop stop-color="#DF625A" offset=".977"/><stop stop-color="#DF615A" offset=".984"/><stop stop-color="#DF605A" offset=".992"/><stop stop-color="#DF605B" offset="1"/></linearGradient><linearGradient x1=".413" gradientTransform="matrix(158.58758 -153.30917 153.11904 158.7845 110.527 216.794)" xmlns:xlink="http://www.w3.org/1999/xlink" y1="0" x2=".805" gradientUnits="userSpaceOnUse" y2="0" xlink:type="simple" xlink:actuate="onLoad" id="j" xlink:show="other"><stop stop-color="#EA953A" offset="0"/><stop stop-color="#EA943A" offset=".016"/><stop stop-color="#EA933A" offset=".02"/><stop stop-color="#EA933B" offset=".023"/><stop stop-color="#EA933B" offset=".031"/><stop stop-color="#EA923B" offset=".039"/><stop stop-color="#EA923C" offset=".047"/><stop stop-color="#EA913C" offset=".055"/><stop stop-color="#E9913D" offset=".063"/><stop stop-color="#E9903D" offset=".066"/><stop stop-color="#E98F3D" offset=".07"/><stop stop-color="#E98F3D" offset=".078"/><stop stop-color="#E98F3E" offset=".086"/><stop stop-color="#E98E3E" offset=".094"/><stop stop-color="#E98D3F" offset=".102"/><stop stop-color="#E88C3F" offset=".105"/><stop stop-color="#E88C40" offset=".109"/><stop stop-color="#E88B40" offset=".117"/><stop stop-color="#E88A40" offset=".125"/><stop stop-color="#E88A40" offset=".133"/><stop stop-color="#E88941" offset=".141"/><stop stop-color="#E88842" offset=".145"/><stop stop-color="#E88842" offset=".148"/><stop stop-color="#E88842" offset=".156"/><stop stop-color="#E78743" offset=".164"/><stop stop-color="#E78643" offset=".172"/><stop stop-color="#E78644" offset=".188"/><stop stop-color="#E78544" offset=".191"/><stop stop-color="#E78444" offset=".195"/><stop stop-color="#E68445" offset=".203"/><stop stop-color="#E68445" offset=".211"/><stop stop-color="#E68346" offset=".219"/><stop stop-color="#E68246" offset=".227"/><stop stop-color="#E68146" offset=".234"/><stop stop-color="#E68047" offset=".242"/><stop stop-color="#E67F47" offset=".246"/><stop stop-color="#E67F47" offset=".25"/><stop stop-color="#E67F47" offset=".258"/><stop stop-color="#E57F48" offset=".266"/><stop stop-color="#E57D48" offset=".27"/><stop stop-color="#E57D49" offset=".273"/><stop stop-color="#E57D49" offset=".281"/><stop stop-color="#E57C49" offset=".289"/><stop stop-color="#E57B49" offset=".297"/><stop stop-color="#E47B4A" offset=".305"/><stop stop-color="#E47A4A" offset=".313"/><stop stop-color="#E47A4B" offset=".32"/><stop stop-color="#E4794C" offset=".328"/><stop stop-color="#E4784C" offset=".344"/><stop stop-color="#E4774C" offset=".348"/><stop stop-color="#E4764D" offset=".352"/><stop stop-color="#E3764D" offset=".355"/><stop stop-color="#E3764D" offset=".359"/><stop stop-color="#E3764E" offset=".363"/><stop stop-color="#E3754E" offset=".367"/><stop stop-color="#E3754E" offset=".375"/><stop stop-color="#E3744F" offset=".383"/><stop stop-color="#E3744F" offset=".391"/><stop stop-color="#E3734F" offset=".395"/><stop stop-color="#E3724F" offset=".398"/><stop stop-color="#E27250" offset=".406"/><stop stop-color="#E27150" offset=".414"/><stop stop-color="#E27051" offset=".422"/><stop stop-color="#E26F52" offset=".438"/><stop stop-color="#E26E52" offset=".441"/><stop stop-color="#E26E52" offset=".445"/><stop stop-color="#E26D52" offset=".453"/><stop stop-color="#E16D53" offset=".469"/><stop stop-color="#E16C53" offset=".477"/><stop stop-color="#E16B54" offset=".484"/><stop stop-color="#E16B54" offset=".492"/><stop stop-color="#E16A55" offset=".5"/><stop stop-color="#E06955" offset=".508"/><stop stop-color="#E06955" offset=".512"/><stop stop-color="#E06856" offset=".516"/><stop stop-color="#E06856" offset=".52"/><stop stop-color="#E06756" offset=".523"/><stop stop-color="#E06756" offset=".531"/><stop stop-color="#E06657" offset=".535"/><stop stop-color="#E06657" offset=".539"/><stop stop-color="#E06557" offset=".547"/><stop stop-color="#E06458" offset=".555"/><stop stop-color="#E06458" offset=".563"/><stop stop-color="#DF6358" offset=".566"/><stop stop-color="#DF6359" offset=".57"/><stop stop-color="#DF6259" offset=".578"/><stop stop-color="#DF625A" offset=".586"/><stop stop-color="#DF615A" offset=".594"/><stop stop-color="#DF605B" offset=".598"/><stop stop-color="#DF605B" offset=".602"/><stop stop-color="#DF605B" offset=".605"/><stop stop-color="#DE605B" offset=".609"/><stop stop-color="#DE5F5B" offset=".617"/><stop stop-color="#DE5F5C" offset=".625"/><stop stop-color="#DE5E5C" offset=".633"/><stop stop-color="#DE5E5D" offset=".637"/><stop stop-color="#DE5D5D" offset=".641"/><stop stop-color="#DE5D5D" offset=".645"/><stop stop-color="#DE5C5D" offset=".648"/><stop stop-color="#DE5C5E" offset=".656"/><stop stop-color="#DE5B5E" offset=".664"/><stop stop-color="#DD5A5E" offset=".672"/><stop stop-color="#DD595F" offset=".688"/><stop stop-color="#DD585F" offset=".691"/><stop stop-color="#DD5860" offset=".695"/><stop stop-color="#DD5760" offset=".703"/><stop stop-color="#DD5760" offset=".711"/><stop stop-color="#DC5661" offset=".719"/><stop stop-color="#DC5561" offset=".727"/><stop stop-color="#DC5561" offset=".73"/><stop stop-color="#DC5562" offset=".734"/><stop stop-color="#DC5462" offset=".742"/><stop stop-color="#DC5362" offset=".75"/><stop stop-color="#DC5363" offset=".758"/><stop stop-color="#DC5263" offset=".766"/><stop stop-color="#DB5264" offset=".77"/><stop stop-color="#DB5164" offset=".773"/><stop stop-color="#DB5165" offset=".781"/><stop stop-color="#DB5065" offset=".789"/><stop stop-color="#DB5065" offset=".797"/><stop stop-color="#DB4F66" offset=".805"/><stop stop-color="#DB4E66" offset=".813"/><stop stop-color="#DA4D67" offset=".816"/><stop stop-color="#DA4D67" offset=".82"/><stop stop-color="#DA4C67" offset=".828"/><stop stop-color="#DA4C68" offset=".836"/><stop stop-color="#DA4B68" offset=".844"/><stop stop-color="#DA4A68" offset=".852"/><stop stop-color="#DA4A69" offset=".855"/><stop stop-color="#DA4A69" offset=".859"/><stop stop-color="#D94969" offset=".867"/><stop stop-color="#D9486A" offset=".875"/><stop stop-color="#D9486A" offset=".883"/><stop stop-color="#D9476B" offset=".891"/><stop stop-color="#D9466B" offset=".898"/><stop stop-color="#D9466B" offset=".906"/><stop stop-color="#D8456C" offset=".914"/><stop stop-color="#D8456C" offset=".918"/><stop stop-color="#D8446C" offset=".922"/><stop stop-color="#D8446D" offset=".938"/><stop stop-color="#D8426D" offset=".941"/><stop stop-color="#D8426E" offset=".945"/><stop stop-color="#D8416E" offset=".953"/><stop stop-color="#D8416E" offset=".961"/><stop stop-color="#D7406E" offset=".969"/><stop stop-color="#D73F6F" offset=".977"/><stop stop-color="#D73F6F" offset=".98"/><stop stop-color="#D73F70" offset=".984"/><stop stop-color="#D73E70" offset=".992"/><stop stop-color="#D73D71" offset="1"/></linearGradient><linearGradient x1=".009" gradientTransform="matrix(158.58758 -153.30917 153.11904 158.7845 110.013 216.26)" xmlns:xlink="http://www.w3.org/1999/xlink" y1="0" x2=".954" gradientUnits="userSpaceOnUse" y2="0" xlink:type="simple" xlink:actuate="onLoad" id="o" xlink:show="other"><stop stop-color="#FFF001" offset="0"/><stop stop-color="#FEEF02" offset=".004"/><stop stop-color="#FEEE02" offset=".008"/><stop stop-color="#FEED03" offset=".012"/><stop stop-color="#FEED03" offset=".016"/><stop stop-color="#FDEC04" offset=".02"/><stop stop-color="#FDEB04" offset=".023"/><stop stop-color="#FDEA05" offset=".027"/><stop stop-color="#FDE905" offset=".031"/><stop stop-color="#FDE906" offset=".035"/><stop stop-color="#FDE806" offset=".039"/><stop stop-color="#FCE706" offset=".043"/><stop stop-color="#FCE607" offset=".047"/><stop stop-color="#FCE507" offset=".051"/><stop stop-color="#FCE408" offset=".055"/><stop stop-color="#FCE409" offset=".059"/><stop stop-color="#FCE30A" offset=".063"/><stop stop-color="#FBE20A" offset=".066"/><stop stop-color="#FBE10B" offset=".07"/><stop stop-color="#FBE00B" offset=".074"/><stop stop-color="#FBDF0C" offset=".078"/><stop stop-color="#FADF0C" offset=".086"/><stop stop-color="#FADD0D" offset=".09"/><stop stop-color="#FADC0E" offset=".094"/><stop stop-color="#FADB0E" offset=".098"/><stop stop-color="#FADA0F" offset=".102"/><stop stop-color="#F9DA0F" offset=".105"/><stop stop-color="#F9D910" offset=".109"/><stop stop-color="#F9D811" offset=".113"/><stop stop-color="#F9D711" offset=".117"/><stop stop-color="#F9D612" offset=".121"/><stop stop-color="#F9D512" offset=".125"/><stop stop-color="#F8D413" offset=".133"/><stop stop-color="#F8D313" offset=".137"/><stop stop-color="#F8D214" offset=".141"/><stop stop-color="#F8D114" offset=".145"/><stop stop-color="#F8D015" offset=".148"/><stop stop-color="#F8D015" offset=".152"/><stop stop-color="#F7CF16" offset=".156"/><stop stop-color="#F7CE16" offset=".16"/><stop stop-color="#F7CD17" offset=".164"/><stop stop-color="#F7CC17" offset=".168"/><stop stop-color="#F6CB18" offset=".172"/><stop stop-color="#F6CB18" offset=".176"/><stop stop-color="#F6CA19" offset=".18"/><stop stop-color="#F6C919" offset=".184"/><stop stop-color="#F6C81A" offset=".188"/><stop stop-color="#F6C71B" offset=".191"/><stop stop-color="#F5C61B" offset=".195"/><stop stop-color="#F5C51C" offset=".203"/><stop stop-color="#F5C41D" offset=".207"/><stop stop-color="#F5C31D" offset=".211"/><stop stop-color="#F5C21E" offset=".215"/><stop stop-color="#F4C11E" offset=".219"/><stop stop-color="#F4C11F" offset=".223"/><stop stop-color="#F4C01F" offset=".227"/><stop stop-color="#F4BF20" offset=".23"/><stop stop-color="#F3BE20" offset=".234"/><stop stop-color="#F3BD20" offset=".238"/><stop stop-color="#F3BC21" offset=".242"/><stop stop-color="#F3BB21" offset=".246"/><stop stop-color="#F3BB22" offset=".25"/><stop stop-color="#F3BA22" offset=".254"/><stop stop-color="#F2B923" offset=".258"/><stop stop-color="#F2B823" offset=".262"/><stop stop-color="#F2B724" offset=".266"/><stop stop-color="#F2B725" offset=".27"/><stop stop-color="#F2B625" offset=".273"/><stop stop-color="#F1B526" offset=".277"/><stop stop-color="#F1B426" offset=".281"/><stop stop-color="#F1B327" offset=".285"/><stop stop-color="#F1B328" offset=".289"/><stop stop-color="#F1B229" offset=".293"/><stop stop-color="#F1B129" offset=".297"/><stop stop-color="#F0B02A" offset=".301"/><stop stop-color="#F0AF2A" offset=".305"/><stop stop-color="#F0AE2A" offset=".309"/><stop stop-color="#F0AE2B" offset=".313"/><stop stop-color="#EFAD2C" offset=".316"/><stop stop-color="#EFAC2C" offset=".32"/><stop stop-color="#EFAB2C" offset=".324"/><stop stop-color="#EFAA2D" offset=".328"/><stop stop-color="#EFAA2D" offset=".332"/><stop stop-color="#EFA92E" offset=".336"/><stop stop-color="#EEA82E" offset=".34"/><stop stop-color="#EEA72F" offset=".344"/><stop stop-color="#EEA62F" offset=".348"/><stop stop-color="#EEA530" offset=".352"/><stop stop-color="#EEA430" offset=".355"/><stop stop-color="#EEA431" offset=".359"/><stop stop-color="#EDA331" offset=".363"/><stop stop-color="#EDA232" offset=".367"/><stop stop-color="#EDA132" offset=".371"/><stop stop-color="#EDA033" offset=".375"/><stop stop-color="#EC9F33" offset=".383"/><stop stop-color="#EC9E34" offset=".387"/><stop stop-color="#EC9D35" offset=".391"/><stop stop-color="#EC9C36" offset=".395"/><stop stop-color="#EC9B36" offset=".398"/><stop stop-color="#EB9A37" offset=".402"/><stop stop-color="#EB9A37" offset=".406"/><stop stop-color="#EB9938" offset=".41"/><stop stop-color="#EB9838" offset=".414"/><stop stop-color="#EB9739" offset=".418"/><stop stop-color="#EB9639" offset=".422"/><stop stop-color="#EB953A" offset=".426"/><stop stop-color="#EA953A" offset=".43"/><stop stop-color="#EA943A" offset=".434"/><stop stop-color="#EA933B" offset=".438"/><stop stop-color="#EA923B" offset=".441"/><stop stop-color="#EA913C" offset=".445"/><stop stop-color="#EA913C" offset=".453"/><stop stop-color="#E98F3D" offset=".457"/><stop stop-color="#E98E3E" offset=".461"/><stop stop-color="#E98D3E" offset=".465"/><stop stop-color="#E88C3F" offset=".469"/><stop stop-color="#E88C3F" offset=".473"/><stop stop-color="#E88B40" offset=".477"/><stop stop-color="#E88A41" offset=".48"/><stop stop-color="#E88941" offset=".484"/><stop stop-color="#E78842" offset=".488"/><stop stop-color="#E78742" offset=".492"/><stop stop-color="#E78643" offset=".5"/><stop stop-color="#E78544" offset=".504"/><stop stop-color="#E78444" offset=".508"/><stop stop-color="#E78345" offset=".512"/><stop stop-color="#E68245" offset=".516"/><stop stop-color="#E68246" offset=".52"/><stop stop-color="#E68147" offset=".523"/><stop stop-color="#E58047" offset=".527"/><stop stop-color="#E57F48" offset=".531"/><stop stop-color="#E57E48" offset=".535"/><stop stop-color="#E57D49" offset=".539"/><stop stop-color="#E57C49" offset=".543"/><stop stop-color="#E57C4A" offset=".547"/><stop stop-color="#E57B4A" offset=".551"/><stop stop-color="#E47A4B" offset=".555"/><stop stop-color="#E4794B" offset=".559"/><stop stop-color="#E4784C" offset=".563"/><stop stop-color="#E4784C" offset=".566"/><stop stop-color="#E4774D" offset=".57"/><stop stop-color="#E3764E" offset=".574"/><stop stop-color="#E3754E" offset=".578"/><stop stop-color="#E3744F" offset=".582"/><stop stop-color="#E3734F" offset=".586"/><stop stop-color="#E27350" offset=".594"/><stop stop-color="#E27151" offset=".598"/><stop stop-color="#E27051" offset=".602"/><stop stop-color="#E26F52" offset=".605"/><stop stop-color="#E26E52" offset=".609"/><stop stop-color="#E16D52" offset=".613"/><stop stop-color="#E16D53" offset=".617"/><stop stop-color="#E16C53" offset=".621"/><stop stop-color="#E16B54" offset=".625"/><stop stop-color="#E16A54" offset=".629"/><stop stop-color="#E16955" offset=".633"/><stop stop-color="#E06955" offset=".637"/><stop stop-color="#E06856" offset=".641"/><stop stop-color="#E06757" offset=".645"/><stop stop-color="#E06657" offset=".648"/><stop stop-color="#E06558" offset=".652"/><stop stop-color="#E06458" offset=".656"/><stop stop-color="#DF6359" offset=".66"/><stop stop-color="#DF6359" offset=".664"/><stop stop-color="#DF625A" offset=".668"/><stop stop-color="#DF615A" offset=".672"/><stop stop-color="#DF605B" offset=".676"/><stop stop-color="#DE5F5B" offset=".68"/><stop stop-color="#DE5F5C" offset=".684"/><stop stop-color="#DE5E5C" offset=".688"/><stop stop-color="#DE5D5D" offset=".691"/><stop stop-color="#DE5C5D" offset=".695"/><stop stop-color="#DE5B5E" offset=".699"/><stop stop-color="#DD5A5E" offset=".703"/><stop stop-color="#DD5A5F" offset=".707"/><stop stop-color="#DD595F" offset=".711"/><stop stop-color="#DD585F" offset=".715"/><stop stop-color="#DD5760" offset=".719"/><stop stop-color="#DD5660" offset=".723"/><stop stop-color="#DC5561" offset=".727"/><stop stop-color="#DC5461" offset=".73"/><stop stop-color="#DC5462" offset=".734"/><stop stop-color="#DC5363" offset=".738"/><stop stop-color="#DB5263" offset=".742"/><stop stop-color="#DB5163" offset=".746"/><stop stop-color="#DB5064" offset=".75"/><stop stop-color="#DB5065" offset=".754"/><stop stop-color="#DB4F66" offset=".758"/><stop stop-color="#DB4E66" offset=".762"/><stop stop-color="#DA4D67" offset=".766"/><stop stop-color="#DA4C67" offset=".77"/><stop stop-color="#DA4B68" offset=".773"/><stop stop-color="#DA4A69" offset=".777"/><stop stop-color="#DA4A69" offset=".781"/><stop stop-color="#D9496A" offset=".785"/><stop stop-color="#D9486A" offset=".789"/><stop stop-color="#D9476B" offset=".793"/><stop stop-color="#D9476B" offset=".797"/><stop stop-color="#D9466C" offset=".801"/><stop stop-color="#D9456C" offset=".805"/><stop stop-color="#D8446C" offset=".809"/><stop stop-color="#D8436D" offset=".813"/><stop stop-color="#D8436D" offset=".816"/><stop stop-color="#D8426E" offset=".82"/><stop stop-color="#D7416E" offset=".824"/><stop stop-color="#D7406F" offset=".828"/><stop stop-color="#D73F6F" offset=".832"/><stop stop-color="#D73E70" offset=".836"/><stop stop-color="#D73D70" offset=".84"/><stop stop-color="#D73D71" offset=".844"/><stop stop-color="#D63C71" offset=".848"/><stop stop-color="#D63B72" offset=".852"/><stop stop-color="#D63A72" offset=".855"/><stop stop-color="#D63973" offset=".859"/><stop stop-color="#D63974" offset=".863"/><stop stop-color="#D63874" offset=".867"/><stop stop-color="#D53775" offset=".871"/><stop stop-color="#D53675" offset=".875"/><stop stop-color="#D53576" offset=".879"/><stop stop-color="#D53476" offset=".883"/><stop stop-color="#D43477" offset=".887"/><stop stop-color="#D43377" offset=".891"/><stop stop-color="#D43278" offset=".895"/><stop stop-color="#D43178" offset=".898"/><stop stop-color="#D43079" offset=".902"/><stop stop-color="#D42F79" offset=".906"/><stop stop-color="#D32E7A" offset=".91"/><stop stop-color="#D32E7A" offset=".914"/><stop stop-color="#D32D7A" offset=".918"/><stop stop-color="#D32C7B" offset=".922"/><stop stop-color="#D32B7B" offset=".926"/><stop stop-color="#D32A7C" offset=".93"/><stop stop-color="#D22A7C" offset=".934"/><stop stop-color="#D2297D" offset=".938"/><stop stop-color="#D2287E" offset=".941"/><stop stop-color="#D2277E" offset=".945"/><stop stop-color="#D2267F" offset=".949"/><stop stop-color="#D2257F" offset=".953"/><stop stop-color="#D22480" offset=".961"/><stop stop-color="#D12381" offset=".965"/><stop stop-color="#D12281" offset=".969"/><stop stop-color="#D12182" offset=".973"/><stop stop-color="#D02082" offset=".977"/><stop stop-color="#D01F83" offset=".98"/><stop stop-color="#D01F84" offset=".984"/><stop stop-color="#D01E85" offset=".988"/><stop stop-color="#D01D85" offset=".992"/><stop stop-color="#D01C85" offset=".996"/><stop stop-color="#CF1B86" offset="1"/></linearGradient></defs><g clip-path="url(#a)"><g clip-path="url(#b)"><g clip-path="url(#c)"><g clip-path="url(#d)"><path fill="url(#e)" d="M 103.5625 126.5625 L 164.339844 189.589844 L 226.554688 129.445312 L 165.777344 66.417969 Z M 103.5625 126.5625"/></g></g></g></g><g clip-path="url(#f)"><g clip-path="url(#g)"><g clip-path="url(#h)"><g clip-path="url(#i)"><path fill="url(#j)" d="M 150.046875 126.5625 L 210.824219 189.589844 L 273.039062 129.445312 L 212.261719 66.417969 Z M 150.046875 126.5625"/></g></g></g></g><g clip-path="url(#k)"><g clip-path="url(#l)"><g clip-path="url(#m)"><g clip-path="url(#n)"><path fill="url(#o)" d="M 40.699219 141.546875 L 186 292.222656 L 335.902344 147.308594 L 190.601562 -3.363281 Z M 40.699219 141.546875"/></g></g></g></g><g fill="#DB486E"><g><g><path d="M 13.703125 -13.96875 L 13.703125 4.375 L 11.34375 4.375 L 11.34375 -1.03125 C 10.675781 -0.632812 9.921875 -0.320312 9.078125 -0.09375 C 8.242188 0.125 7.394531 0.234375 6.53125 0.234375 C 4.613281 0.234375 3.242188 -0.335938 2.421875 -1.484375 C 1.609375 -2.628906 1.203125 -4.515625 1.203125 -7.140625 C 1.203125 -9.785156 1.726562 -11.675781 2.78125 -12.8125 C 3.84375 -13.945312 5.640625 -14.515625 8.171875 -14.515625 C 9.140625 -14.515625 10.140625 -14.460938 11.171875 -14.359375 C 12.210938 -14.253906 13.054688 -14.125 13.703125 -13.96875 Z M 8.171875 -12.375 C 6.316406 -12.375 5.085938 -12.015625 4.484375 -11.296875 C 3.878906 -10.578125 3.578125 -9.191406 3.578125 -7.140625 C 3.578125 -5.179688 3.832031 -3.828125 4.34375 -3.078125 C 4.863281 -2.328125 5.863281 -1.953125 7.34375 -1.953125 C 8.007812 -1.953125 8.691406 -2.035156 9.390625 -2.203125 C 10.097656 -2.378906 10.75 -2.625 11.34375 -2.9375 L 11.34375 -12.0625 C 10.882812 -12.15625 10.378906 -12.226562 9.828125 -12.28125 C 9.285156 -12.34375 8.734375 -12.375 8.171875 -12.375 Z M 8.171875 -12.375" transform="translate(111.876 259.514)"/></g></g></g><g fill="#DB486E"><g><g><path d="M 6.515625 0.234375 C 4.929688 0.234375 3.742188 -0.15625 2.953125 -0.9375 C 2.171875 -1.726562 1.78125 -2.914062 1.78125 -4.5 L 1.78125 -14.21875 L 4.140625 -14.21875 L 4.140625 -4.78125 C 4.140625 -3.800781 4.390625 -3.085938 4.890625 -2.640625 C 5.390625 -2.203125 6.175781 -1.984375 7.25 -1.984375 C 7.90625 -1.984375 8.5625 -2.0625 9.21875 -2.21875 C 9.882812 -2.382812 10.554688 -2.644531 11.234375 -3 L 11.234375 -14.21875 L 13.59375 -14.21875 L 13.59375 0 L 11.4375 0 L 11.3125 -1.1875 L 11.265625 -1.1875 C 10.265625 -0.664062 9.398438 -0.296875 8.671875 -0.078125 C 7.941406 0.128906 7.222656 0.234375 6.515625 0.234375 Z M 6.515625 0.234375" transform="translate(130.13 259.514)"/></g></g></g><g fill="#DB486E"><g><g><path d="M 4.34375 -16.703125 L 1.8125 -16.703125 L 1.8125 -19.15625 L 4.34375 -19.15625 Z M 4.265625 0 L 1.90625 0 L 1.90625 -14.21875 L 4.265625 -14.21875 Z M 4.265625 0" transform="translate(148.298 259.514)"/></g></g></g><g fill="#DB486E"><g><g><path d="M 11.515625 -2.078125 L 11.515625 0 L 0.828125 0 L 0.828125 -2.078125 L 8.34375 -12.203125 L 1.359375 -12.203125 L 1.359375 -14.21875 L 11.03125 -14.21875 L 11.03125 -12.203125 L 3.515625 -2.078125 Z M 11.515625 -2.078125" transform="translate(157.137 259.514)"/></g></g></g><g fill="#DB486E"><g><g><path d="M 4.265625 0 L 1.90625 0 L 1.90625 -19.15625 L 4.265625 -19.15625 L 4.265625 -13.078125 C 5.128906 -13.554688 5.988281 -13.914062 6.84375 -14.15625 C 7.695312 -14.394531 8.546875 -14.515625 9.390625 -14.515625 C 10.960938 -14.515625 12.144531 -14.117188 12.9375 -13.328125 C 13.738281 -12.546875 14.140625 -11.382812 14.140625 -9.84375 L 14.140625 0 L 11.78125 0 L 11.78125 -9.5625 C 11.78125 -10.539062 11.523438 -11.253906 11.015625 -11.703125 C 10.503906 -12.148438 9.710938 -12.375 8.640625 -12.375 C 7.929688 -12.375 7.195312 -12.28125 6.4375 -12.09375 C 5.675781 -11.90625 4.953125 -11.632812 4.265625 -11.28125 Z M 4.265625 0" transform="translate(179.682 259.514)"/></g></g></g><g fill="#DB486E"><g><g><path d="M 5.125 0.234375 C 3.664062 0.234375 2.59375 -0.113281 1.90625 -0.8125 C 1.226562 -1.519531 0.890625 -2.628906 0.890625 -4.140625 C 0.890625 -5.679688 1.300781 -6.769531 2.125 -7.40625 C 2.957031 -8.050781 4.359375 -8.375 6.328125 -8.375 C 6.984375 -8.375 7.628906 -8.34375 8.265625 -8.28125 C 8.898438 -8.226562 9.492188 -8.144531 10.046875 -8.03125 L 10.046875 -9.421875 C 10.046875 -10.472656 9.773438 -11.226562 9.234375 -11.6875 C 8.703125 -12.144531 7.84375 -12.375 6.65625 -12.375 C 5.769531 -12.375 4.988281 -12.34375 4.3125 -12.28125 C 3.644531 -12.21875 2.972656 -12.109375 2.296875 -11.953125 L 2.296875 -14 C 3.066406 -14.1875 3.847656 -14.316406 4.640625 -14.390625 C 5.441406 -14.472656 6.351562 -14.515625 7.375 -14.515625 C 9.082031 -14.515625 10.347656 -14.113281 11.171875 -13.3125 C 11.992188 -12.519531 12.40625 -11.289062 12.40625 -9.625 L 12.40625 0 L 10.25 0 L 10.140625 -1.328125 L 10.078125 -1.328125 C 9.503906 -0.867188 8.757812 -0.492188 7.84375 -0.203125 C 6.9375 0.0859375 6.03125 0.234375 5.125 0.234375 Z M 6.59375 -6.453125 C 5.289062 -6.453125 4.382812 -6.289062 3.875 -5.96875 C 3.363281 -5.65625 3.109375 -5.097656 3.109375 -4.296875 C 3.109375 -3.453125 3.316406 -2.84375 3.734375 -2.46875 C 4.160156 -2.09375 4.851562 -1.90625 5.8125 -1.90625 C 6.5625 -1.90625 7.328125 -2.019531 8.109375 -2.25 C 8.898438 -2.476562 9.546875 -2.765625 10.046875 -3.109375 L 10.046875 -6.15625 C 9.410156 -6.257812 8.816406 -6.332031 8.265625 -6.375 C 7.722656 -6.425781 7.164062 -6.453125 6.59375 -6.453125 Z M 6.59375 -6.453125" transform="translate(198.282 259.514)"/></g></g></g><g fill="#DB486E"><g><g><path d="M 11.34375 -14.21875 L 13.9375 -14.21875 L 8.46875 0 L 5.765625 0 L 0.28125 -14.21875 L 2.90625 -14.21875 L 7.140625 -2.15625 Z M 11.34375 -14.21875" transform="translate(215.154 259.514)"/></g></g></g><g fill="#DB486E"><g><g><path d="M 12.578125 -2.765625 L 12.578125 -0.78125 C 12.078125 -0.507812 11.34375 -0.269531 10.375 -0.0625 C 9.40625 0.132812 8.421875 0.234375 7.421875 0.234375 C 5.203125 0.234375 3.609375 -0.335938 2.640625 -1.484375 C 1.679688 -2.640625 1.203125 -4.546875 1.203125 -7.203125 C 1.203125 -9.753906 1.703125 -11.609375 2.703125 -12.765625 C 3.703125 -13.929688 5.296875 -14.515625 7.484375 -14.515625 C 9.523438 -14.515625 10.984375 -14.054688 11.859375 -13.140625 C 12.742188 -12.234375 13.1875 -10.710938 13.1875 -8.578125 C 13.1875 -8.191406 13.175781 -7.835938 13.15625 -7.515625 C 13.132812 -7.191406 13.097656 -6.796875 13.046875 -6.328125 L 3.59375 -6.328125 C 3.613281 -4.753906 3.9375 -3.628906 4.5625 -2.953125 C 5.1875 -2.285156 6.265625 -1.953125 7.796875 -1.953125 C 8.628906 -1.953125 9.492188 -2.03125 10.390625 -2.1875 C 11.296875 -2.34375 12.023438 -2.535156 12.578125 -2.765625 Z M 11.03125 -8.890625 C 11.007812 -10.160156 10.726562 -11.054688 10.1875 -11.578125 C 9.65625 -12.109375 8.753906 -12.375 7.484375 -12.375 C 6.066406 -12.375 5.0625 -12.070312 4.46875 -11.46875 C 3.882812 -10.863281 3.59375 -9.804688 3.59375 -8.296875 L 11 -8.296875 C 11 -8.328125 11.003906 -8.414062 11.015625 -8.5625 C 11.023438 -8.707031 11.03125 -8.816406 11.03125 -8.890625 Z M 11.03125 -8.890625" transform="translate(232.055 259.514)"/></g></g></g><g fill="#DB486E"><g><g><path d="M 4.265625 0 L 1.90625 0 L 1.90625 -14.21875 L 3.9375 -14.21875 L 4.0625 -12.84375 L 4.140625 -12.84375 C 4.910156 -13.414062 5.710938 -13.835938 6.546875 -14.109375 C 7.378906 -14.378906 8.316406 -14.515625 9.359375 -14.515625 C 10.929688 -14.515625 12.125 -14.117188 12.9375 -13.328125 C 13.757812 -12.546875 14.171875 -11.382812 14.171875 -9.84375 L 14.171875 0 L 11.8125 0 L 11.8125 -9.5625 C 11.8125 -10.519531 11.539062 -11.226562 11 -11.6875 C 10.457031 -12.144531 9.632812 -12.375 8.53125 -12.375 C 7.832031 -12.375 7.125 -12.265625 6.40625 -12.046875 C 5.6875 -11.828125 4.972656 -11.507812 4.265625 -11.09375 Z M 4.265625 0" transform="translate(249.072 259.514)"/></g></g></g></svg>